<svg version="1.0" xmlns="http://www.w3.org/2000/svg" viewBox="0 0 512 307" preserveAspectRatio="xMidYMid meet" id="el_Hpu_gNKV9"><style>@-webkit-keyframes kf_el_9Du9d9EuP3_an_OWy9eg-Qh{
0%{-webkit-transform: translate(291.5091247558594px, 775px) translate(-291.5091247558594px, -775px) translate(0px, 0px);transform: translate(291.5091247558594px, 775px) translate(-291.5091247558594px, -775px) translate(0px, 0px);}
16.67%{-webkit-transform: translate(291.5091247558594px, 775px) translate(-291.5091247558594px, -775px) translate(500px, 0px);transform: translate(291.5091247558594px, 775px) translate(-291.5091247558594px, -775px) translate(500px, 0px);}
33.33%{-webkit-transform: translate(291.5091247558594px, 775px) translate(-291.5091247558594px, -775px) translate(1000px, 0px);transform: translate(291.5091247558594px, 775px) translate(-291.5091247558594px, -775px) translate(1000px, 0px);}
50%{-webkit-transform: translate(291.5091247558594px, 775px) translate(-291.5091247558594px, -775px) translate(2000px, 0px);transform: translate(291.5091247558594px, 775px) translate(-291.5091247558594px, -775px) translate(2000px, 0px);}
66.67%{-webkit-transform: translate(291.5091247558594px, 775px) translate(-291.5091247558594px, -775px) translate(3000px, 0px);transform: translate(291.5091247558594px, 775px) translate(-291.5091247558594px, -775px) translate(3000px, 0px);}
83.33%{-webkit-transform: translate(291.5091247558594px, 775px) translate(-291.5091247558594px, -775px) translate(4000px, 0px);transform: translate(291.5091247558594px, 775px) translate(-291.5091247558594px, -775px) translate(4000px, 0px);}
100%{-webkit-transform: translate(291.5091247558594px, 775px) translate(-291.5091247558594px, -775px) translate(5000px, 0px);transform: translate(291.5091247558594px, 775px) translate(-291.5091247558594px, -775px) translate(5000px, 0px);}}
@keyframes kf_el_9Du9d9EuP3_an_OWy9eg-Qh{
0%{-webkit-transform: translate(291.5091247558594px, 775px) translate(-291.5091247558594px, -775px) translate(0px, 0px);transform: translate(291.5091247558594px, 775px) translate(-291.5091247558594px, -775px) translate(0px, 0px);}
16.67%{-webkit-transform: translate(291.5091247558594px, 775px) translate(-291.5091247558594px, -775px) translate(500px, 0px);transform: translate(291.5091247558594px, 775px) translate(-291.5091247558594px, -775px) translate(500px, 0px);}
33.33%{-webkit-transform: translate(291.5091247558594px, 775px) translate(-291.5091247558594px, -775px) translate(1000px, 0px);transform: translate(291.5091247558594px, 775px) translate(-291.5091247558594px, -775px) translate(1000px, 0px);}
50%{-webkit-transform: translate(291.5091247558594px, 775px) translate(-291.5091247558594px, -775px) translate(2000px, 0px);transform: translate(291.5091247558594px, 775px) translate(-291.5091247558594px, -775px) translate(2000px, 0px);}
66.67%{-webkit-transform: translate(291.5091247558594px, 775px) translate(-291.5091247558594px, -775px) translate(3000px, 0px);transform: translate(291.5091247558594px, 775px) translate(-291.5091247558594px, -775px) translate(3000px, 0px);}
83.33%{-webkit-transform: translate(291.5091247558594px, 775px) translate(-291.5091247558594px, -775px) translate(4000px, 0px);transform: translate(291.5091247558594px, 775px) translate(-291.5091247558594px, -775px) translate(4000px, 0px);}
100%{-webkit-transform: translate(291.5091247558594px, 775px) translate(-291.5091247558594px, -775px) translate(5000px, 0px);transform: translate(291.5091247558594px, 775px) translate(-291.5091247558594px, -775px) translate(5000px, 0px);}}
#el_Hpu_gNKV9 *{-webkit-animation-duration: 3s;animation-duration: 3s;-webkit-animation-iteration-count: 1;animation-iteration-count: 1;-webkit-animation-timing-function: cubic-bezier(0, 0, 1, 1);animation-timing-function: cubic-bezier(0, 0, 1, 1);}
#el_BHjpnrARaE{-webkit-transform: translate(0px, 307px) scale(0.1, -0.1);transform: translate(0px, 307px) scale(0.1, -0.1);fill: #000000;stroke: none;}
#el_9Du9d9EuP3_an_cfQtWeAuP{-webkit-transform: translate(291.5091247558594px, 775px) translate(-291.5091247558594px, -775px) translate(1px, 0px);transform: translate(291.5091247558594px, 775px) translate(-291.5091247558594px, -775px) translate(1px, 0px);}
#el_9Du9d9EuP3_an_iWJJTuomK{-webkit-transform: translate(291.5091247558594px, 775px) translate(-291.5091247558594px, -775px) translate(5px, 0px);transform: translate(291.5091247558594px, 775px) translate(-291.5091247558594px, -775px) translate(5px, 0px);}
#el_9Du9d9EuP3_an_fKJHjQ7B1{-webkit-transform: translate(291.5091247558594px, 775px) scale(1, 1) translate(-291.5091247558594px, -775px);transform: translate(291.5091247558594px, 775px) scale(1, 1) translate(-291.5091247558594px, -775px);}
#el_9Du9d9EuP3_an_NeEwcMqgu{-webkit-transform: translate(291.5091247558594px, 775px) translate(-291.5091247558594px, -775px) translate(2px, 2px);transform: translate(291.5091247558594px, 775px) translate(-291.5091247558594px, -775px) translate(2px, 2px);}
#el_BHjpnrARaE_an_SBjpmLYIn{-webkit-transform: translate(291.5091247558594px, 775px) rotate(3600deg) translate(-291.5091247558594px, -775px);transform: translate(291.5091247558594px, 775px) rotate(3600deg) translate(-291.5091247558594px, -775px);}
#el_9Du9d9EuP3_an_uC46x81B0{-webkit-transform: translate(291.5091247558594px, 775px) translate(-291.5091247558594px, -775px) translate(0px, 0px);transform: translate(291.5091247558594px, 775px) translate(-291.5091247558594px, -775px) translate(0px, 0px);}
#el_9Du9d9EuP3_an_OWy9eg-Qh{-webkit-animation-fill-mode: backwards;animation-fill-mode: backwards;-webkit-transform: translate(291.5091247558594px, 775px) translate(-291.5091247558594px, -775px) translate(0px, 0px);transform: translate(291.5091247558594px, 775px) translate(-291.5091247558594px, -775px) translate(0px, 0px);-webkit-animation-name: kf_el_9Du9d9EuP3_an_OWy9eg-Qh;animation-name: kf_el_9Du9d9EuP3_an_OWy9eg-Qh;-webkit-animation-timing-function: cubic-bezier(0, 0, 1, 1);animation-timing-function: cubic-bezier(0, 0, 1, 1);}</style>
<metadata>
Created by potrace 1.15, written by Peter Selinger 2001-2017
</metadata>
<g id="el_BHjpnrARaE">
<g id="el_9Du9d9EuP3_an_OWy9eg-Qh" data-animator-group="true" data-animator-type="0"><path d="M1533 2290 c-16 -7 -23 -18 -23 -37 0 -28 -6 -31 -167 -92 -147 -56&#10;-313 -124 -503 -207 -30 -13 -73 -24 -95 -24 -22 0 -60 -5 -85 -11 -25 -6 -97&#10;-14 -159 -17 l-115 -7 -19 -33 c-16 -27 -17 -36 -7 -42 10 -6 11 -17 1 -53 -6&#10;-25 -11 -70 -11 -100 0 -40 -5 -58 -19 -71 -32 -29 -44 -95 -38 -222 l5 -116&#10;35 -29 c20 -16 39 -38 42 -49 15 -47 122 -73 378 -92 167 -12 168 -12 174 -38&#10;12 -53 68 -143 115 -185 70 -63 142 -89 248 -89 171 0 298 91 356 252 12 33&#10;13 34 14 11 l0 -26 1069 5 1069 5 25 -50 c35 -69 101 -131 177 -167 58 -27 75&#10;-31 155 -31 76 0 99 4 147 27 32 15 73 39 92 53 40 31 102 118 112 157 3 16&#10;10 26 14 23 11 -7 206 14 235 25 46 17 57 50 63 187 12 303 9 320 -59 375 -51&#10;41 -214 92 -438 138 -270 54 -394 70 -626 77 -178 5 -203 8 -228 26 -63 44&#10;-331 193 -477 265 -153 76 -218 98 -375 128 -109 21 -581 30 -787 15 -150 -10&#10;-159 -10 -190 9 -35 21 -69 24 -105 10z m709 -270 c15 -91 27 -173 27 -182 1&#10;-16 -13 -18 -161 -18 -215 0 -600 17 -661 29 -81 15 -137 88 -119 156 25 95&#10;398 185 757 181 l130 -1 27 -165z m425 131 c157 -32 221 -57 381 -153 92 -56&#10;119 -78 93 -78 -20 0 -41 -33 -41 -66 l0 -34 -314 0 -314 0 -12 33 c-37 103&#10;-98 286 -104 311 l-7 29 88 -7 c48 -3 152 -19 230 -35z m-1283 -765 c47 -20&#10;113 -82 139 -130 30 -57 30 -165 0 -222 -29 -54 -101 -117 -151 -132 -124 -37&#10;-254 18 -315 133 -30 56 -30 164 0 221 25 47 91 110 137 130 41 17 148 18 190&#10;0z m2876 -7 c95 -43 150 -129 150 -234 -1 -145 -111 -255 -255 -255 -221 0&#10;-336 256 -191 427 65 78 200 106 296 62z" id="el_9Du9d9EuP3"/></g>
</g>
</svg>